<svg className= 'logo-svg' width="50" height="60" viewBox="0 0 50 60" fill="none" xmlns="http://www.w3.org/2000/svg">
<path fill-rule="evenodd" clip-rule="evenodd" d="M15.6582 6.98666C15.1098 6.37967 15.1586 5.4442 15.7671 4.89722L20.7922 0.380412C21.3139 -0.0885412 22.0938 -0.12823 22.6607 0.285327L27.8532 4.07362C28.2351 4.35222 28.4608 4.79583 28.4608 5.26775V13.8012L48.4047 29.3066C51.4971 31.7108 49.7927 36.6575 45.8719 36.6575H45.188L43.128 53.0959L8.02562 60L4.58422 36.6575H4.12808C0.207333 36.6575 -1.49707 31.7108 1.59532 29.3066L22.4672 13.0797C23.3493 12.3939 24.4412 12.1144 25.4944 12.241V6.01861L21.8824 3.38345L17.7529 7.09532C17.1444 7.64229 16.2065 7.59365 15.6582 6.98666ZM45.5588 33.6986L45.7648 32.0548H3.90563L4.14798 33.6986H4.12808C3.03027 33.6986 2.55304 32.3135 3.41891 31.6404L24.2908 15.4134C24.7078 15.0893 25.2922 15.0893 25.7092 15.4134L46.5811 31.6404C47.447 32.3135 46.9697 33.6986 45.8719 33.6986H45.5588Z" fill="black"/>
</svg>
